<svg version="1.1" id="Layer_1" xmlns="http://www.w3.org/2000/svg" xmlns:xlink="http://www.w3.org/1999/xlink" x="0px" y="0px"
	 width="100%" viewBox="0 0 512 512" enable-background="new 0 0 512 512" xml:space="preserve">
<path fill="#2196F3" opacity="1.000000" stroke="none" 
	d="
M1.000000,201.000000 
	C1.000000,185.312439 1.000000,169.624878 1.343288,153.787354 
	C2.120854,152.798752 2.838650,151.995041 2.946943,151.116226 
	C4.609458,137.624710 8.970005,124.932175 14.731779,112.745308 
	C25.184799,90.635902 39.545395,71.496201 58.025002,55.292767 
	C69.739235,45.021393 82.301933,36.092575 95.883270,28.672642 
	C120.905991,15.001901 147.611877,6.289505 176.001114,2.918243 
	C176.733017,2.831331 177.336578,1.663648 178.000000,0.999998 
	C198.687561,1.000000 219.375122,1.000000 240.246521,1.360903 
	C241.107666,2.137134 241.738861,2.789844 242.469284,2.931685 
	C251.404724,4.666876 260.417786,6.049429 269.287964,8.063994 
	C288.406586,12.406150 306.539978,19.708454 323.466644,29.360220 
	C342.820007,40.395702 360.720398,53.507740 375.415985,70.711685 
	C384.470612,81.311852 392.674072,92.379768 399.206726,104.647270 
	C408.220825,121.574600 414.183563,139.444107 416.123169,158.674850 
	C417.740570,174.710968 417.700836,190.670792 414.691040,206.455841 
	C411.386932,223.784241 405.062500,240.097549 395.957062,255.274200 
	C382.033173,278.482208 363.971161,297.724274 341.659943,313.140533 
	C321.134125,327.323090 298.930359,337.768951 274.972198,344.464203 
	C258.123962,349.172516 240.944214,352.814789 223.425735,352.885956 
	C154.802307,353.164917 86.177010,352.957184 17.552639,353.069489 
	C11.044706,353.080139 6.006466,351.253632 2.749426,345.399933 
	C2.554914,345.050415 1.600699,345.123535 1.000000,345.000000 
	C1.000000,339.977905 1.000000,334.955811 1.246365,329.795654 
	C16.211575,315.769135 30.930420,301.880707 45.908562,287.747620 
	C40.343731,281.192810 35.978107,276.735657 32.400433,271.716797 
	C17.609886,250.968323 7.092881,228.332001 2.922879,202.987717 
	C2.799838,202.239929 1.663753,201.658829 1.000000,201.000000 
M97.009743,144.588470 
	C97.720352,155.019455 103.987267,160.984070 114.470589,160.988174 
	C177.416336,161.012787 240.362106,161.010239 303.307861,160.990997 
	C313.797760,160.987793 321.093872,154.248764 320.988159,144.811844 
	C320.884857,135.588974 313.654358,129.013046 303.434814,129.009735 
	C240.489059,128.989365 177.543304,128.990021 114.597542,129.009155 
	C104.536827,129.012207 98.959923,133.758240 97.009743,144.588470 
M97.226067,206.104401 
	C96.446152,217.728485 102.989304,224.977509 114.463943,224.987091 
	C156.084015,225.021881 197.704147,225.015106 239.324234,224.991058 
	C249.803070,224.985001 257.099152,218.238281 256.988647,208.803284 
	C256.880615,199.583481 249.651260,193.015594 239.433960,193.009460 
	C197.813873,192.984497 156.193756,192.987381 114.573662,193.008179 
	C105.446556,193.012741 100.463593,196.644302 97.226067,206.104401 
z"/>
<path fill="#000000" opacity="1.000000" stroke="none" 
	d="
M1.000000,345.468658 
	C1.600699,345.123535 2.554914,345.050415 2.749426,345.399933 
	C6.006466,351.253632 11.044706,353.080139 17.552639,353.069489 
	C86.177010,352.957184 154.802307,353.164917 223.425735,352.885956 
	C240.944214,352.814789 258.123962,349.172516 274.972198,344.464203 
	C298.930359,337.768951 321.134125,327.323090 341.659943,313.140533 
	C363.971161,297.724274 382.033173,278.482208 395.957062,255.274200 
	C405.062500,240.097549 411.386932,223.784241 414.691040,206.455841 
	C417.700836,190.670792 417.740570,174.710968 416.123169,158.674850 
	C414.183563,139.444107 408.220825,121.574600 399.206726,104.647270 
	C392.674072,92.379768 384.470612,81.311852 375.415985,70.711685 
	C360.720398,53.507740 342.820007,40.395702 323.466644,29.360220 
	C306.539978,19.708454 288.406586,12.406150 269.287964,8.063994 
	C260.417786,6.049429 251.404724,4.666876 242.469284,2.931685 
	C241.738861,2.789844 241.107666,2.137134 240.715179,1.360903 
	C331.595032,1.000000 422.190063,1.000000 513.000000,1.000000 
	C513.000000,94.687454 513.000000,188.375061 512.677490,282.871582 
	C511.915100,283.017395 511.237640,282.408630 511.071716,281.682922 
	C509.195374,273.476624 507.914612,265.094421 505.463104,257.068207 
	C501.286560,243.394180 494.831360,230.694260 487.141479,218.627335 
	C479.312775,206.342621 469.668091,195.601364 459.098236,185.674728 
	C455.972748,182.739395 452.357605,180.325409 448.000000,176.916061 
	C448.000000,180.709137 448.256409,183.170776 447.956238,185.562576 
	C446.554626,196.729935 445.841339,208.071854 443.326691,218.993256 
	C437.821533,242.903030 427.243378,264.603455 413.144562,284.756714 
	C400.960236,302.173401 386.528290,317.398773 369.900391,330.368073 
	C352.367523,344.043213 333.315765,355.344086 312.621857,363.896301 
	C285.813446,374.975525 257.946503,381.404541 229.179184,383.871857 
	C216.483795,384.960724 203.671204,384.864075 190.909302,384.956055 
	C168.910919,385.114655 146.910583,385.000031 124.911057,385.000031 
	C123.337402,385.000031 121.763748,385.000031 119.878502,385.000031 
	C120.234520,386.109375 120.281593,386.607178 120.527184,386.971008 
	C133.240707,405.805817 148.815414,421.955688 166.562729,436.079254 
	C184.245575,450.151550 203.836411,460.791199 225.026520,468.501312 
	C244.542648,475.602386 264.620422,480.201385 285.439240,480.951752 
	C293.615204,481.246429 301.810638,481.000000 309.997223,481.000000 
	C372.495850,481.000000 434.994568,480.958893 497.493011,481.065491 
	C503.541016,481.075806 507.850983,478.744171 511.106232,473.867493 
	C511.434357,473.375977 512.354553,473.279663 513.000000,473.000000 
	C513.000000,486.325226 513.000000,499.650421 513.000000,512.981689 
	C342.445221,512.987793 171.890442,512.987793 1.000000,512.987793 
	C1.000000,457.312897 1.000000,401.625092 1.000000,345.468658 
z"/>
<path fill="#64B5F6" opacity="1.000000" stroke="none" 
	d="
M513.000000,472.533142 
	C512.354553,473.279663 511.434357,473.375977 511.106232,473.867493 
	C507.850983,478.744171 503.541016,481.075806 497.493011,481.065491 
	C434.994568,480.958893 372.495850,481.000000 309.997223,481.000000 
	C301.810638,481.000000 293.615204,481.246429 285.439240,480.951752 
	C264.620422,480.201385 244.542648,475.602386 225.026520,468.501312 
	C203.836411,460.791199 184.245575,450.151550 166.562729,436.079254 
	C148.815414,421.955688 133.240707,405.805817 120.527184,386.971008 
	C120.281593,386.607178 120.234520,386.109375 119.878502,385.000031 
	C121.763748,385.000031 123.337402,385.000031 124.911057,385.000031 
	C146.910583,385.000031 168.910919,385.114655 190.909302,384.956055 
	C203.671204,384.864075 216.483795,384.960724 229.179184,383.871857 
	C257.946503,381.404541 285.813446,374.975525 312.621857,363.896301 
	C333.315765,355.344086 352.367523,344.043213 369.900391,330.368073 
	C386.528290,317.398773 400.960236,302.173401 413.144562,284.756714 
	C427.243378,264.603455 437.821533,242.903030 443.326691,218.993256 
	C445.841339,208.071854 446.554626,196.729935 447.956238,185.562576 
	C448.256409,183.170776 448.000000,180.709137 448.000000,176.916061 
	C452.357605,180.325409 455.972748,182.739395 459.098236,185.674728 
	C469.668091,195.601364 479.312775,206.342621 487.141479,218.627335 
	C494.831360,230.694260 501.286560,243.394180 505.463104,257.068207 
	C507.914612,265.094421 509.195374,273.476624 511.071716,281.682922 
	C511.237640,282.408630 511.915100,283.017395 512.677490,283.340240 
	C513.000000,298.020905 513.000000,313.041779 512.679260,328.199158 
	C511.573608,330.909302 510.570709,333.438782 510.039062,336.063721 
	C506.445679,353.805542 500.182129,370.560730 490.511078,385.829346 
	C484.285156,395.658752 477.055298,404.852264 470.076996,414.608185 
	C482.662231,427.183258 495.455597,439.982544 508.276093,452.754578 
	C509.773956,454.246735 511.421722,455.588501 513.000000,457.000000 
	C513.000000,462.022095 513.000000,467.044189 513.000000,472.533142 
z"/>
<path fill="#000000" opacity="1.000000" stroke="none" 
	d="
M177.531342,0.999998 
	C177.336578,1.663648 176.733017,2.831331 176.001114,2.918243 
	C147.611877,6.289505 120.905991,15.001901 95.883270,28.672642 
	C82.301933,36.092575 69.739235,45.021393 58.025002,55.292767 
	C39.545395,71.496201 25.184799,90.635902 14.731779,112.745308 
	C8.970005,124.932175 4.609458,137.624710 2.946943,151.116226 
	C2.838650,151.995041 2.120854,152.798752 1.343288,153.318695 
	C1.000000,102.400787 1.000000,51.801567 1.000000,1.000000 
	C59.687405,1.000000 118.375046,1.000000 177.531342,0.999998 
z"/>
<path fill="#000000" opacity="1.000000" stroke="none" 
	d="
M513.000000,456.531342 
	C511.421722,455.588501 509.773956,454.246735 508.276093,452.754578 
	C495.455597,439.982544 482.662231,427.183258 470.076996,414.608185 
	C477.055298,404.852264 484.285156,395.658752 490.511078,385.829346 
	C500.182129,370.560730 506.445679,353.805542 510.039062,336.063721 
	C510.570709,333.438782 511.573608,330.909302 512.679260,328.667847 
	C513.000000,371.354218 513.000000,413.708466 513.000000,456.531342 
z"/>
<path fill="#000000" opacity="1.000000" stroke="none" 
	d="
M1.000000,201.468658 
	C1.663753,201.658829 2.799838,202.239929 2.922879,202.987717 
	C7.092881,228.332001 17.609886,250.968323 32.400433,271.716797 
	C35.978107,276.735657 40.343731,281.192810 45.908562,287.747620 
	C30.930420,301.880707 16.211575,315.769135 1.246365,329.328796 
	C1.000000,286.645782 1.000000,244.291550 1.000000,201.468658 
z"/>
<path fill="#FAFAFA" opacity="1.000000" stroke="none" 
	d="
M97.025139,144.171295 
	C98.959923,133.758240 104.536827,129.012207 114.597542,129.009155 
	C177.543304,128.990021 240.489059,128.989365 303.434814,129.009735 
	C313.654358,129.013046 320.884857,135.588974 320.988159,144.811844 
	C321.093872,154.248764 313.797760,160.987793 303.307861,160.990997 
	C240.362106,161.010239 177.416336,161.012787 114.470589,160.988174 
	C103.987267,160.984070 97.720352,155.019455 97.025139,144.171295 
z"/>
<path fill="#F9FAFA" opacity="1.000000" stroke="none" 
	d="
M97.327896,205.707367 
	C100.463593,196.644302 105.446556,193.012741 114.573662,193.008179 
	C156.193756,192.987381 197.813873,192.984497 239.433960,193.009460 
	C249.651260,193.015594 256.880615,199.583481 256.988647,208.803284 
	C257.099152,218.238281 249.803070,224.985001 239.324234,224.991058 
	C197.704147,225.015106 156.084015,225.021881 114.463943,224.987091 
	C102.989304,224.977509 96.446152,217.728485 97.327896,205.707367 
z"/>
</svg>